<?xml version="1.0" standalone="no"?>
<!DOCTYPE svg PUBLIC "-//W3C//DTD SVG 20010904//EN"
 "http://www.w3.org/TR/2001/REC-SVG-20010904/DTD/svg10.dtd">
<svg version="1.0" xmlns="http://www.w3.org/2000/svg"
 width="1536.000000pt" height="1536.000000pt" viewBox="0 0 1536.000000 1536.000000"
 preserveAspectRatio="xMidYMid meet">
<metadata>
Created by potrace 1.14, written by Peter Selinger 2001-2017
</metadata>
<g transform="translate(0.000000,1536.000000) scale(0.100000,-0.100000)"
fill="#000000" stroke="none">
<path d="M10560 10560 l0 -480 -480 0 -480 0 0 -480 0 -480 -4800 0 -4800 0 0
-480 0 -480 480 0 480 0 0 -480 0 -480 480 0 480 0 0 -480 0 -480 480 0 480 0
0 -480 0 -480 480 0 480 0 0 480 0 480 480 0 480 0 0 -480 0 -480 480 0 480 0
0 480 0 480 480 0 480 0 0 -480 0 -480 480 0 480 0 0 480 0 480 960 0 960 0 0
-480 0 -480 480 0 480 0 0 -480 0 -480 1440 0 1440 0 0 480 0 480 480 0 480 0
0 480 0 480 480 0 480 0 0 1440 0 1440 -480 0 -480 0 0 480 0 480 -480 0 -480
0 0 480 0 480 -1440 0 -1440 0 0 -480z m2880 -960 l0 -480 480 0 480 0 0
-1440 0 -1440 -480 0 -480 0 0 -480 0 -480 -1440 0 -1440 0 0 480 0 480 -480
0 -480 0 0 480 0 480 -960 0 -960 0 0 -480 0 -480 -480 0 -480 0 0 480 0 480
-480 0 -480 0 0 -480 0 -480 -480 0 -480 0 0 480 0 480 -480 0 -480 0 0 -480
0 -480 -480 0 -480 0 0 480 0 480 -480 0 -480 0 0 480 0 480 3840 0 3840 0 0
480 0 480 480 0 480 0 0 480 0 480 1440 0 1440 0 0 -480z"/>
<path d="M12480 8160 l0 -480 480 0 480 0 0 480 0 480 -480 0 -480 0 0 -480z"/>
</g>
</svg>
