<svg xmlns="http://www.w3.org/2000/svg" width="96" height="42" viewBox="0 0 96 42">
  <defs>
    <style>
      .a {
        fill: #48c8aa;
      }
    </style>
  </defs>
  <title>maybe</title>
  <g>
    <rect class="a" y="12" width="55" height="6"/>
    <rect class="a" x="6" y="18" width="6" height="6"/>
    <rect class="a" x="12" y="24" width="6" height="6"/>
    <rect class="a" x="18" y="30" width="6" height="6"/>
    <rect class="a" x="24" y="24" width="6" height="6"/>
    <rect class="a" x="30" y="30" width="6" height="6"/>
    <rect class="a" x="36" y="24" width="6" height="6"/>
    <rect class="a" x="42" y="30" width="6" height="6"/>
    <rect class="a" x="48" y="24" width="6" height="6"/>
    <rect class="a" x="54" y="24" width="6" height="6"/>
    <rect class="a" x="60" y="30" width="6" height="6"/>
    <rect class="a" x="66" y="36" width="6" height="6"/>
    <rect class="a" x="72" y="36" width="6" height="6"/>
    <rect class="a" x="78" y="36" width="6" height="6"/>
    <rect class="a" x="84" y="30" width="6" height="6"/>
    <rect class="a" x="90" y="24" width="6" height="6"/>
    <rect class="a" x="90" y="18" width="6" height="6"/>
    <rect class="a" x="90" y="12" width="6" height="6"/>
    <rect class="a" x="84" y="6" width="6" height="6"/>
    <rect class="a" x="78" width="6" height="6"/>
    <rect class="a" x="72" width="6" height="6"/>
    <rect class="a" x="66" width="6" height="6"/>
    <rect class="a" x="60" y="6" width="6" height="6"/>
    <rect class="a" x="54" y="12" width="6" height="6"/>
    <rect class="a" x="78" y="15" width="6" height="6"/>
  </g>
</svg>
